<svg width="420" height="146" xmlns="http://www.w3.org/2000/svg" xmlns:xlink="http://www.w3.org/1999/xlink">
  <defs>
    <filter id="grain-chatflix" x="0" y="0" width="100%" height="100%">
      <feTurbulence type="fractalNoise" baseFrequency="0.75" numOctaves="3" result="noise" />
      <feColorMatrix type="matrix" values="0.33 0.33 0.33 0 0  0.33 0.33 0.33 0 0  0.33 0.33 0.33 0 0  0 0 0 0.08 0" in="noise" />
    </filter>
  </defs>

  <!-- Giant Panel Basement (Charcoal + Organic Grain) -->
  <rect x="0" y="0" width="420" height="146" fill="#141416"/>
  <rect x="0" y="0" width="420" height="146" filter="url(#grain-chatflix)" style="pointer-events:none;"/>
  
  <!-- Embedded OLED Project Card -->
  <rect x="16" y="16" width="388" height="114" rx="14" fill="#0A0A0C" stroke="rgba(255,255,255,0.06)" stroke-width="1"/>
  <rect x="17" y="17" width="386" height="1" fill="rgba(255,255,255,0.03)"/>
  
  
        <rect x="32" y="38" width="64" height="64" rx="16" fill="#E50914" fill-opacity="0.15" stroke="#E50914" stroke-opacity="0.3" stroke-width="1"/>
        <g transform="translate(50, 56) scale(1.2)"><g fill="#E50914"><path fill="currentColor" d="M20 2H4c-1.1 0-2 .9-2 2v18l4-4h14c1.1 0 2-.9 2-2V4c0-1.1-.9-2-2-2zm-6 9.5l-6 3.5v-7l6 3.5z"/></g></g>
        

  <!-- Typography Hierarchy (Play Store Fonts) -->
  <text x="112" y="56" font-family="'Google Sans', Roboto, 'Segoe UI', system-ui, sans-serif" font-size="18" font-weight="700" fill="#ffffff" letter-spacing="0.2">CHATFLIX</text>
  <text x="112" y="78" font-family="Roboto, 'Segoe UI', system-ui, sans-serif" font-size="14" font-weight="400" fill="#a0a0a0">Real-time messaging platform</text>
  <text x="112" y="96" font-family="Roboto, 'Segoe UI', system-ui, sans-serif" font-size="12" font-weight="500" fill="#666666">React &#183; Node.js &#183; Socket.IO</text>

  <g transform="translate(352, 55)"><rect width="36" height="36" rx="12" fill="rgba(255,255,255,0.08)" stroke="rgba(255,255,255,0.12)"/><path fill="#ffffff" d="M19 19H5V5h7V3H5c-1.11 0-2 .9-2 2v14c0 1.1.89 2 2 2h14c1.1 0 2-.9 2-2v-7h-2v7zM14 3v2h3.59l-9.83 9.83 1.41 1.41L19 6.41V10h2V3h-7z" transform="translate(6, 6) scale(1)"/></g><g transform="translate(308, 55)"><rect width="36" height="36" rx="12" fill="rgba(255,255,255,0.05)" stroke="rgba(255,255,255,0.08)"/><path fill="#ffffff" opacity="0.8" d="M12 2A10 10 0 0 0 2 12c0 4.42 2.87 8.17 6.84 9.5c.5.08.66-.23.66-.5v-1.69c-2.77.6-3.36-1.34-3.36-1.34c-.45-1.15-1.11-1.46-1.11-1.46c-.91-.62.07-.6.07-.6c1 .07 1.53 1.03 1.53 1.03c.87 1.52 2.34 1.07 2.91.83c.09-.65.35-1.09.63-1.34c-2.22-.25-4.55-1.11-4.55-4.92c0-1.11.38-2 1.03-2.71c-.1-.25-.45-1.29.1-2.64c0 0 .84-.27 2.75 1.02c.79-.22 1.65-.33 2.5-.33c.85 0 1.71.11 2.5.33c1.91-1.29 2.75-1.02 2.75-1.02c.55 1.35.2 2.39.1 2.64c.65.71 1.03 1.6 1.03 2.71c0 3.82-2.34 4.66-4.57 4.91c.36.31.69.92.69 1.85V21c0 .27.16.59.67.5C19.14 20.16 22 16.42 22 12A10 10 0 0 0 12 2z" transform="translate(6, 6) scale(1)"/></g>
</svg>