<svg width="410" height="138" xmlns="http://www.w3.org/2000/svg" xmlns:xlink="http://www.w3.org/1999/xlink">
  <defs>
    <filter id="grain-sstraess" x="0" y="0" width="100%" height="100%">
      <feTurbulence type="fractalNoise" baseFrequency="0.75" numOctaves="3" result="noise" />
      <feColorMatrix type="matrix" values="0.33 0.33 0.33 0 0  0.33 0.33 0.33 0 0  0.33 0.33 0.33 0 0  0 0 0 0.08 0" in="noise" />
    </filter>
  </defs>

  <!-- Base Matte Charcoal -->
  <rect x="0" y="0" width="410" height="126" rx="14" fill="#141416" stroke="rgba(255,255,255,0.06)" stroke-width="1"/>
  <!-- Organic Film Grain Overlay -->
  <rect x="0" y="0" width="410" height="126" rx="14" filter="url(#grain-sstraess)" style="pointer-events:none;"/>
  <!-- Subtle Top Highlight -->
  <rect x="1" y="1" width="408" height="1" fill="rgba(255,255,255,0.03)"/>
  
  
        <rect x="18" y="27" width="72" height="72" rx="18" fill="#FFC107" fill-opacity="0.15" stroke="#FFC107" stroke-opacity="0.3" stroke-width="1"/>
        <g transform="translate(38, 47) scale(1.4)"><g fill="#FFC107"><path fill="currentColor" d="M16 6l2.29 2.29-4.88 4.88-4-4L2 16.59 3.41 18l6-6 4 4 6.3-6.29L22 12V6z"/></g></g>
        

  <!-- Typography Hierarchy (Play Store Fonts: Google Sans & Roboto) -->
  <text x="104" y="48" font-family="'Google Sans', Roboto, 'Segoe UI', system-ui, sans-serif" font-size="18" font-weight="700" fill="#ffffff" letter-spacing="0.2">SSTRAESS</text>
  <text x="104" y="70" font-family="Roboto, 'Segoe UI', system-ui, sans-serif" font-size="14" font-weight="400" fill="#a0a0a0">High-intensity load testing</text>
  <text x="104" y="88" font-family="Roboto, 'Segoe UI', system-ui, sans-serif" font-size="12" font-weight="500" fill="#666666">Node.js &#183; Monitoring</text>

  <g transform="translate(360, 45)"><rect width="36" height="36" rx="12" fill="rgba(255,255,255,0.08)" stroke="rgba(255,255,255,0.12)"/><path fill="#ffffff" d="M19 19H5V5h7V3H5c-1.11 0-2 .9-2 2v14c0 1.1.89 2 2 2h14c1.1 0 2-.9 2-2v-7h-2v7zM14 3v2h3.59l-9.83 9.83 1.41 1.41L19 6.41V10h2V3h-7z" transform="translate(6, 6) scale(1)"/></g>
</svg>